<svg xmlns="http://www.w3.org/2000/svg" width="512" height="512"><path d="m255.625-.312 2.942.006C272.906-.255 286.905.141 301 3l3.077.602C352.975 13.383 397.136 36.42 433 71l1.947 1.865c8.63 8.3 16.642 16.753 23.759 26.392a343 343 0 0 0 4.024 5.282C473.677 118.853 482.41 134.684 490 151l.987 2.104c9.48 20.501 15.707 42.57 19.013 64.896l.53 3.388c1.66 11.618 1.869 23.138 1.845 34.862l-.002 3.066C512.247 310.476 496.877 361.175 467 403l-1.382 1.956C456.806 417.35 446.748 428.27 436 439l-2.402 2.508C426.583 448.75 419.079 454.98 411 461l-1.747 1.31C400.52 468.815 391.479 474.641 382 480l-2.143 1.219c-23.135 13.025-48.307 21.774-74.295 27.094l-2.178.446c-14.676 2.79-29.2 3.59-44.111 3.557-2.94-.003-5.878.02-8.818.045-13.373.045-26.27-1.16-39.455-3.361l-3.446-.57a197 197 0 0 1-7.742-1.555l-2.805-.62a251.44 251.44 0 0 1-115.288-61.747 129 129 0 0 0-5.86-5.102c-2.294-1.93-4.196-3.746-6.109-6.031-1.93-2.276-3.871-4.503-5.926-6.668C51.728 413.937 41.478 399.393 33 384l-1.397-2.514C16.758 354.58 6.69 326.4 2 296l-.54-3.415C-.195 280.977-.398 269.463-.375 257.75v-3.063C-.34 238.127.61 222.253 4 206l.551-2.7C11.722 169.324 25.961 137.295 46 109l1.382-1.96C54.819 96.582 63.037 87.17 72 78l1.905-1.967C81.543 68.16 89.251 60.649 98 54l1.637-1.263c31.305-24.064 66.972-40.25 105.55-48.487l2.803-.603c15.869-3.223 31.484-4.024 47.635-3.96M129 70l-2.895 2.07c-18.313 13.393-35.391 28.921-48.862 47.243a369 369 0 0 1-3.716 4.933C52.336 152.466 38.757 186.267 33 221l-.537 3.193c-1.615 10.644-1.82 21.123-1.776 31.87l.006 2.74c.046 13.583.463 26.867 3.307 40.197l.536 2.535C43.021 340.348 60.72 375.245 87 405l2.195 2.566c19.522 22.44 44.316 39.694 70.993 52.559l2.822 1.362c6.017 2.811 11.452 4.552 17.99 6.513v-39l-17 1c-16.357-1.41-30.787-6.575-42-19l-1.57-1.664c-3.562-3.881-6.517-7.904-9.368-12.336-5.02-7.675-10.574-14.21-19.062-18-2.7-.557-5.24-.806-8-1l.035-1.738c.1-9.441-.488-18.841-1.035-28.262 17.374.507 31.85 6.198 44 19 3.862 4.742 7.438 9.67 10.844 14.75 4.54 6.769 9.97 13.87 17.914 16.816 7.566 1.464 16.315 1.637 23.544-1.322 3.47-2.542 3.817-6.664 4.573-10.682q.553-2.56 1.117-5.12l.449-2.291C186 377 186 377 187.063 374.91c1.157-2.004 1.157-2.004.937-4.91l-1.674-.516c-35.37-11.018-65.865-29.981-83.56-63.629-16.075-32.007-17.605-69.094-6.454-102.945 3.492-10.045 7.83-21.43 14.946-29.457 2.276-3.205 1.99-4.653 1.492-8.516-1.989-21.07-3.97-45.494 8.25-63.937 2.134-2.37 4.31-4.292 7-6l1.723-1.125c13.803-5.304 31.449 1.524 44.057 7.124 9.352 4.331 18.641 9.282 27.22 15.001a79 79 0 0 0 8-1l2.705-.45a1515 1515 0 0 0 12.1-2.09c25.333-4.34 51.596-3.509 76.625 2.307 9.45 2.119 14.663-.657 22.757-5.517 9.2-5.483 18.428-10.489 28.75-13.5l3.215-.953c8.54-2.39 20.147-4.06 28.536-.234 8.91 5.701 12.61 14.86 15.062 24.75 2.733 14.689 2.074 30.529.313 45.312-.496 6.2.942 8.91 4.835 13.625 17.464 22.852 21.49 58.006 18.102 85.75-3.356 23.507-11.844 44.594-27 63l-2.3 2.8c-17.814 20.613-42.737 33.115-68.7 40.2.854 4.85 2.435 9.328 4.063 13.965 1.71 5.54 2.074 10.82 2.142 16.6l.03 2.22q.046 3.604.081 7.207l.063 5.019q.082 6.585.153 13.168.077 6.728.161 13.454.162 13.183.307 26.367c7.694-2.204 14.73-4.948 21.938-8.437l3.301-1.596c18.16-8.946 34.594-20.165 49.488-33.877a261 261 0 0 1 6.46-5.715c7.433-6.51 13.67-13.638 19.813-21.375l2.41-2.965c7.042-8.85 12.94-18.247 18.59-28.035l1.215-2.093c16.344-28.483 26.687-62.614 27.023-95.587l.03-2.43c.406-41.751-7.424-79.862-27.268-116.89l-.968-1.818c-28.363-52.81-79.124-91.16-135.86-108.71C254.644 20.23 181.902 31.54 129 70m15 53c-2.27 6.356-2.344 12.354-2.312 19.063l.001 3.375c.081 7.275.894 13.65 2.686 20.695 1.173 5.382 1.042 10.165-1.543 15.094-1.532 2.324-3.163 4.545-4.832 6.773-15.937 22.83-22.257 50.403-17.423 77.917 4.943 24.356 19.064 45.432 39.61 59.396C184.436 341.045 212.054 344.636 240 349c-3.943 6.226-7.903 12.436-12 18.563l-1.282 1.93a265 265 0 0 1-7.593 10.757c-9.13 13.028-8.277 27.873-8.223 43.137l.005 4.66q.006 6.079.024 12.158.014 6.225.02 12.45.016 12.173.049 24.345 3.6.732 7.2 1.46l2.047.417c4.913.99 9.758 1.752 14.753 2.123.8.06 1.6.12 2.424.18 20.36 1.358 43.946 2.363 63.576-4.18q.07-13.302.104-26.603.014-6.18.047-12.358.032-5.982.039-11.963.004-2.264.021-4.526c.137-19.613-2.19-34.15-14.621-50.109-3.253-4.237-6.194-8.683-9.152-13.128l-1.628-2.435C272 350.13 272 350.13 272 349l3.019-.471C309.157 343.166 340.023 337.784 366 313c.675-.59 1.35-1.178 2.047-1.785 16.25-14.787 23.433-37.25 24.765-58.59 1.14-24.252-5.712-47.77-20.486-67.073-4.298-5.615-5.764-9.43-5.326-16.552.45-1.97.954-3.929 1.5-5.875 1.602-7.04 1.804-13.855 1.813-21.062l.015-3.268c-.05-5.643-.426-10.469-2.328-15.795-15.778 2.254-30.155 12.007-43.47 20.27-7.52 4.662-14.387 4.55-22.905 2.707a773 773 0 0 1-5.625-1.352c-28.616-6.551-57.513-6.283-86.03 1.104-7.198 1.806-13.881 2.487-20.595-1.167l-3.082-1.656c-4.208-2.435-8.353-4.967-12.501-7.502C164.489 129.791 154.828 124.71 144 123" fill="#8A8F98"/></svg>