<svg xmlns="http://www.w3.org/2000/svg" width="512" height="512"><path d="m243.23-.203 2.864-.022C285.146-.45 285.146-.45 302 3l3.02.586C353.421 13.15 397.616 35.567 433 70l2.028 1.95c8.937 8.614 17.34 17.323 24.698 27.332a268 268 0 0 0 3.965 5.183C471.556 114.68 477.941 125.637 484 137l1.34 2.506C496.857 161.41 504.528 185.701 509 210l.487 2.426c5.492 28.078 5.247 61.564-.487 89.574l-.586 3.02C500.295 346.109 482.926 383.203 457 416l-2.46 3.145C441.863 434.718 427.3 449.253 411 461q-1.633 1.224-3.262 2.453C376.531 486.703 340.212 501.968 302 509l-2.426.487c-28.067 5.49-61.576 5.262-89.574-.487l-3.068-.602C173.539 501.72 139.76 489.1 112 469l-1.846-1.335A553 553 0 0 1 96 457l-1.643-1.274C78.122 442.963 63.053 427.773 51 411q-1.295-1.755-2.594-3.508C33.263 386.866 21.181 364.257 13 340l-.834-2.47c-3.239-9.77-5.77-19.652-7.916-29.717l-.602-2.803c-3.293-16.206-4.023-32.14-3.96-48.635l.006-3.086C-.256 238.665.058 224.372 3 210l.586-3.02C11.215 168.372 26.927 132.218 51 101l1.95-2.531C67.033 80.539 83.376 63.25 102 50l1.872-1.352C144.024 19.776 193.279.046 243.23-.203M95.858 96.908C89.785 102.924 84.2 109.206 79 116l-1.304 1.694C70.767 126.748 64.618 136.084 59 146l-1.034 1.794C45.242 169.985 37.083 194.802 33 220l-.54 3.233c-1.621 10.706-1.859 21.269-1.835 32.08l.002 2.795c.132 49.102 16.568 106.097 52.225 141.841L85 402c1.53-4.025 3.03-8.048 4.402-12.129 14.782-43.202 44.911-79.303 85.869-100.02 4.871-2.367 9.798-4.609 14.729-6.851a245 245 0 0 0 4-2 130 130 0 0 0-8.75-8.25C164.635 254.683 152.976 232.115 149 205c-1.8-31.442 4.785-60.322 25.788-84.435C188.012 105.87 204.105 95.065 223 89l1.915-.628c19.894-6.256 44.32-6.033 64.085.628l2.131.715C318.151 99.147 340.216 118.296 353 144c12.237 27.08 14.187 57.893 3.98 86.007C349.341 249.569 335.912 268.6 318 280c1.578 3.156 4.808 3.726 7.938 5 37.4 15.917 67.427 43.908 86.062 80l1.066 2.054c5.609 10.95 9.514 22.143 12.934 33.946 2.946.342 2.946.342 4.36-1.275l1.39-1.81 1.577-2.044 1.673-2.246 1.741-2.312c5.997-8.098 11.247-16.58 16.259-25.313l1.12-1.928c16.389-28.427 26.803-63.36 27.118-96.224l.03-2.574c.175-19.096-.017-37.557-4.268-56.274l-.65-2.868C464.73 156.676 436.583 110.06 396 79l-1.694-1.304C385.252 70.767 375.916 64.618 366 59l-1.794-1.034C341.928 45.192 317.234 37.292 292 33l-3.82-.652c-70.886-10.672-141.456 15.098-192.322 64.56M201 137c-15.802 17.023-22.77 36.655-22.305 59.64.76 17.706 8.402 34.351 20.305 47.36.59.682 1.18 1.364 1.79 2.066 12.764 13.88 31.869 22.1 50.503 23.254 21.234.803 40.94-5.893 56.707-20.32l2.066-1.79c13.666-12.568 22.28-31.736 23.254-50.14.728-22.896-6.214-41.723-21.32-59.07-13.962-14.76-33.369-22.7-53.418-23.96-21.855-.24-41.668 7.978-57.582 22.96m-56 215c-18.252 20.806-29.639 47.237-33.5 74.535.534 3.7.71 4.102 3.367 6.387q1.978 1.452 4.008 2.828l2.17 1.544c8.06 5.648 16.434 10.789 24.955 15.706l1.932 1.125c48.717 28.08 109.623 34.625 163.757 20.806 30.178-8.164 57.409-21.377 82.15-40.497A111 111 0 0 1 400 430c.627-5.872-.738-11.312-2.125-17l-.687-2.818c-4.96-19.62-14.225-38.601-27.188-54.182l-1.431-1.746c-5.732-6.977-11.44-13.66-18.569-19.254l-2.816-2.32C285.307 282.52 197.102 294.297 145 352" fill="#8a8f98"/></svg>